C:\Users\r0593348\3dpredictsim\Results\Batchsim_tmt_linear\Pog_s1_tmt_aCst_d02_k250_ig24_pas_GRF.mot
nRows=25
nColumns=19

name C:\Users\r0593348\3dpredictsim\Results\Batchsim_tmt_linear\Pog_s1_tmt_aCst_d02_k250_ig24_pas_GRF.mot
datacolumns 19
datarows 25
range 0.5588309958 0.8270698738
endheader
time 	ground_force_vx	ground_force_vy	ground_force_vz	ground_force_px	ground_force_py	ground_force_pz	1_ground_force_vx	1_ground_force_vy	1_ground_force_vz	1_ground_force_px	1_ground_force_py	1_ground_force_pz	ground_torque_x	ground_torque_y	ground_torque_z	1_ground_torque_x	1_ground_torque_y	1_ground_torque_z
        0.5588309958	       92.5392180597	      471.0505518504	        6.4594822710	        0.3778840042	        0.0000000000	        0.0322458554	      -72.8397445952	       81.0178892355	      -53.0076169688	        0.8741421005	        0.0000000000	       -0.0355861915	        0.0000000000	        0.0000000000	        0.0000000000	        0.0000000000	        0.0000000000	        0.0000000000	
        0.5700076157	       73.8385282635	      386.7623096356	       12.5478787405	        0.3821782227	        0.0000000000	        0.0311543242	      -66.8562064488	      175.1812135381	      -94.7125743045	        0.8789784031	        0.0000000000	       -0.0333055893	        0.0000000000	        0.0000000000	        0.0000000000	        0.0000000000	        0.0000000000	        0.0000000000	
        0.5811842356	       50.1484971500	      288.6098008773	       10.3423918260	        0.3895155216	        0.0000000000	        0.0284689291	      -41.3917361884	      327.0929511907	      -23.5662212025	        0.8822668453	        0.0000000000	       -0.0308543957	        0.0000000000	        0.0000000000	        0.0000000000	        0.0000000000	        0.0000000000	        0.0000000000	
        0.5923608556	       28.0141696970	      195.1943585777	        7.0574867840	        0.4024695964	        0.0000000000	        0.0228571765	      -49.0201282786	      495.5740579213	       -1.7164293137	        0.8863619971	        0.0000000000	       -0.0313273249	        0.0000000000	        0.0000000000	        0.0000000000	        0.0000000000	        0.0000000000	        0.0000000000	
        0.6035374755	        9.6290714869	      141.2036932739	       11.3662422932	        0.4159374993	        0.0000000000	        0.0159323112	      -82.9811135268	      681.0721239533	        7.3354163760	        0.8947488636	        0.0000000000	       -0.0338850342	        0.0000000000	        0.0000000000	        0.0000000000	        0.0000000000	        0.0000000000	        0.0000000000	
        0.6147140954	        0.8082059850	      113.1449025086	       12.2911884254	        0.4158453562	        0.0000000000	        0.0161234747	     -107.8657678777	      805.8923812648	       10.9344958240	        0.9007837734	        0.0000000000	       -0.0356712743	        0.0000000000	        0.0000000000	        0.0000000000	        0.0000000000	        0.0000000000	        0.0000000000	
        0.6258907153	       -2.6523896810	       73.5657315222	       11.0342048971	        0.4164021553	        0.0000000000	        0.0161648339	     -114.6720305651	      852.2185629989	       12.0605863784	        0.9049242177	        0.0000000000	       -0.0367665234	        0.0000000000	        0.0000000000	        0.0000000000	        0.0000000000	        0.0000000000	        0.0000000000	
        0.6370673352	       -7.3619622999	       30.3546322651	        6.1810288487	        0.4163738513	        0.0000000000	        0.0160440183	     -110.0013043772	      849.2709025496	       12.4594548894	        0.9080523278	        0.0000000000	       -0.0374161371	        0.0000000000	        0.0000000000	        0.0000000000	        0.0000000000	        0.0000000000	        0.0000000000	
        0.6482439551	        0.0496982814	       -0.0487686655	       -0.0008008256	        0.0000000000	        0.0000000000	        0.0000000000	     -100.6605018753	      827.9870124947	       13.0195036703	        0.9110314494	        0.0000000000	       -0.0377812776	        0.0000000000	        0.0000000000	        0.0000000000	        0.0000000000	        0.0000000000	        0.0000000000	
        0.6594205751	        0.0000182545	       -0.0000145603	        0.0000012456	        0.0000000000	        0.0000000000	        0.0000000000	      -88.2822134401	      797.8486026922	       14.1823407057	        0.9142376795	        0.0000000000	       -0.0379549701	        0.0000000000	        0.0000000000	        0.0000000000	        0.0000000000	        0.0000000000	        0.0000000000	
        0.6705971950	        0.0000176079	       -0.0000123628	        0.0000014431	        0.0000000000	        0.0000000000	        0.0000000000	      -75.8635480239	      760.7500294247	       14.4529293880	        0.9176816979	        0.0000000000	       -0.0380618046	        0.0000000000	        0.0000000000	        0.0000000000	        0.0000000000	        0.0000000000	        0.0000000000	
        0.6817738149	        0.0002645995	       -0.0001667550	        0.0000237517	        0.0000000000	        0.0000000000	        0.0000000000	      -65.6535488379	      727.4911258015	       14.7628014716	        0.9218452864	        0.0000000000	       -0.0380648567	        0.0000000000	        0.0000000000	        0.0000000000	        0.0000000000	        0.0000000000	        0.0000000000	
        0.6929504348	        0.0039302621	       -0.0022719847	        0.0003710793	        0.0000000000	        0.0000000000	        0.0000000000	      -56.1715836471	      697.7561369581	       15.2178311702	        0.9263533963	        0.0000000000	       -0.0380000104	        0.0000000000	        0.0000000000	        0.0000000000	        0.0000000000	        0.0000000000	        0.0000000000	
        0.7041270547	       -0.0207406445	        0.0111540016	       -0.0020250022	        0.0000000000	        0.0000000000	        0.0000000000	      -46.9947777901	      669.6294885756	       15.7690730214	        0.9308740721	        0.0000000000	       -0.0379603887	        0.0000000000	        0.0000000000	        0.0000000000	        0.0000000000	        0.0000000000	        0.0000000000	
        0.7153036746	       -0.0142546431	        0.0072062145	       -0.0014316694	        0.0000000000	        0.0000000000	        0.0000000000	      -39.0079809099	      644.7097587130	       16.3525515248	        0.9354157812	        0.0000000000	       -0.0379633886	        0.0000000000	        0.0000000000	        0.0000000000	        0.0000000000	        0.0000000000	        0.0000000000	
        0.7264802945	       -0.0103148617	        0.0049456811	       -0.0010604119	        0.0000000000	        0.0000000000	        0.0000000000	      -32.3322964192	      623.8785595060	       17.0405682676	        0.9399620558	        0.0000000000	       -0.0379935958	        0.0000000000	        0.0000000000	        0.0000000000	        0.0000000000	        0.0000000000	        0.0000000000	
        0.7376569145	       -0.0098757584	        0.0045242580	       -0.0010336471	        0.0000000000	        0.0000000000	        0.0000000000	      -26.6535025263	      607.3968268463	       17.6419311420	        0.9446668035	        0.0000000000	       -0.0380380256	        0.0000000000	        0.0000000000	        0.0000000000	        0.0000000000	        0.0000000000	        0.0000000000	
        0.7488335344	       -0.0127839178	        0.0056295006	       -0.0013553235	        0.0000000000	        0.0000000000	        0.0000000000	      -22.2424358838	      595.5653015416	       17.9261247134	        0.9496970792	        0.0000000000	       -0.0380734788	        0.0000000000	        0.0000000000	        0.0000000000	        0.0000000000	        0.0000000000	        0.0000000000	
        0.7600101543	       -0.0213203522	        0.0090715916	       -0.0022733646	        0.0000000000	        0.0000000000	        0.0000000000	      -19.1536245515	      587.9679700374	       17.9452996309	        0.9550057795	        0.0000000000	       -0.0380742257	        0.0000000000	        0.0000000000	        0.0000000000	        0.0000000000	        0.0000000000	        0.0000000000	
        0.7711867742	       -0.0423804747	        0.0175046167	       -0.0045172789	        0.0000000000	        0.0000000000	        0.0000000000	      -17.3750350954	      584.1771287986	       17.9584725108	        0.9606162991	        0.0000000000	       -0.0380213254	        0.0000000000	        0.0000000000	        0.0000000000	        0.0000000000	        0.0000000000	        0.0000000000	
        0.7823633941	       -0.0919086551	        0.0370036038	       -0.0097535469	        0.0000000000	        0.0000000000	        0.0000000000	      -16.3963159495	      582.9515148564	       17.7101498040	        0.9663921726	        0.0000000000	       -0.0379163805	        0.0000000000	        0.0000000000	        0.0000000000	        0.0000000000	        0.0000000000	        0.0000000000	
        0.7935400140	       -0.1999320924	        0.0787709435	       -0.0210498644	        0.0000000000	        0.0000000000	        0.0000000000	      -15.3200617988	      582.9705052889	       17.4312914853	        0.9722699700	        0.0000000000	       -0.0377657654	        0.0000000000	        0.0000000000	        0.0000000000	        0.0000000000	        0.0000000000	        0.0000000000	
        0.8047166340	       -0.4044688135	        0.1565438550	       -0.0420945846	        0.0000000000	        0.0000000000	        0.0000000000	      -14.0982669536	      582.9913377627	       17.0361345764	        0.9781615668	        0.0000000000	       -0.0375849170	        0.0000000000	        0.0000000000	        0.0000000000	        0.0000000000	        0.0000000000	        0.0000000000	
        0.8158932539	       -0.7229413960	        0.2758285838	       -0.0741355086	        0.0000000000	        0.0000000000	        0.0000000000	      -12.6386170604	      582.2032590093	       16.5636165948	        0.9840123276	        0.0000000000	       -0.0373855851	        0.0000000000	        0.0000000000	        0.0000000000	        0.0000000000	        0.0000000000	        0.0000000000	
        0.8270698738	       -1.1118244016	        0.4194594912	       -0.1118938926	        0.0000000000	        0.0000000000	        0.0000000000	      -10.7965234917	      579.9981204779	       16.1031884251	        0.9897824521	        0.0000000000	       -0.0371778348	        0.0000000000	        0.0000000000	        0.0000000000	        0.0000000000	        0.0000000000	        0.0000000000	
